<svg xmlns="http://www.w3.org/2000/svg" viewBox="0 0 64 64">
  <!-- Coffee/honey mug -->
  <rect width="64" height="64" fill="#f0f2f5" rx="8"/>
  <path d="M 18 24 Q 18 22 20 22 L 38 22 Q 40 22 40 24 L 40 44 Q 40 48 36 48 L 22 48 Q 18 48 18 44 Z" fill="#4a6b7c"/>
  <ellipse cx="29" cy="22" rx="10" ry="2" fill="#6b8fa3"/>
  <path d="M 40 28 L 44 28 Q 48 28 48 32 Q 48 36 44 36 L 40 36" fill="none" stroke="#6b8fa3" stroke-width="3"/>
  <path d="M 24 16 Q 26 12 28 16" fill="none" stroke="#8ba8b7" stroke-width="2" stroke-linecap="round"/>
  <path d="M 29 16 Q 31 12 33 16" fill="none" stroke="#8ba8b7" stroke-width="2" stroke-linecap="round"/>
  <path d="M 34 16 Q 36 12 38 16" fill="none" stroke="#8ba8b7" stroke-width="2" stroke-linecap="round"/>
</svg>
