<?xml version="1.0" encoding="UTF-8" standalone="no"?>
<svg
   xmlns:dc="http://purl.org/dc/elements/1.1/"
   xmlns:cc="http://creativecommons.org/ns#"
   xmlns:rdf="http://www.w3.org/1999/02/22-rdf-syntax-ns#"
   xmlns:svg="http://www.w3.org/2000/svg"
   xmlns="http://www.w3.org/2000/svg"
   xmlns:sodipodi="http://sodipodi.sourceforge.net/DTD/sodipodi-0.dtd"
   xmlns:inkscape="http://www.inkscape.org/namespaces/inkscape"
   width="199.81914"
   height="141.27037"
   viewBox="0 0 199.81914 141.27037"
   version="1.1"
   id="svg15"
   sodipodi:docname="Wis-eau-claire_logo_from_NCAA.svg"
   inkscape:version="1.0.1 (3bc2e813f5, 2020-09-07)">
  <metadata
     id="metadata21">
    <rdf:RDF>
      <cc:Work
         rdf:about="">
        <dc:format>image/svg+xml</dc:format>
        <dc:type
           rdf:resource="http://purl.org/dc/dcmitype/StillImage" />
      </cc:Work>
    </rdf:RDF>
  </metadata>
  <defs
     id="defs19" />
  <sodipodi:namedview
     pagecolor="#ffffff"
     bordercolor="#666666"
     borderopacity="1"
     objecttolerance="10"
     gridtolerance="10"
     guidetolerance="10"
     inkscape:pageopacity="0"
     inkscape:pageshadow="2"
     inkscape:window-width="1920"
     inkscape:window-height="1136"
     id="namedview17"
     showgrid="false"
     inkscape:zoom="3.675"
     inkscape:cx="100"
     inkscape:cy="70.5358"
     inkscape:window-x="0"
     inkscape:window-y="27"
     inkscape:window-maximized="1"
     inkscape:current-layer="svg15" />
  <!-- Generator: Sketch 54.1 (76490) - https://sketchapp.com -->
  <title
     id="title2">wis-eau-claire</title>
  <desc
     id="desc4">Created with Sketch.</desc>
  <g
     id="g13"
     stroke="none"
     stroke-width="1"
     fill="none"
     fill-rule="evenodd"
     transform="translate(0,-29.4642)">
    <g
       id="wis-eau-claire_BGL">
      <g
         id="wis-eau-claire"
         transform="translate(0,29)">
        <g
           id="g10"
           transform="matrix(1,0,0,-1,0,141.73457)"
           fill-rule="nonzero">
          <g
             id="g12">
            <path
               d="m 147.2753,70.635183 c 0,3.024074 -11.80555,11.505556 -23.49999,11.505556 V 59.599505 c 11.69938,0 23.49999,8.013456 23.49999,11.035678 z m 9.61852,0 40.22531,-40.003702 C 177.58641,13.207963 145.62777,1.8518518 109.52098,1.8518518 50.055431,1.8518518 1.8518518,32.649999 1.8518518,70.635183 c 0,37.988887 48.2035792,68.783337 107.6691282,68.783337 35.34445,0 66.70926,-10.87963 86.34013,-27.68087 z"
               id="path14"
               fill="#eaa610" />
            <path
               d="M 125.62716,80.214813 V 61.5179 c 10.14382,0.727777 19.02839,7.16358 19.77407,9.120987 -0.73148,1.996914 -9.79691,8.794444 -19.77407,9.575926 z m -1.85185,-22.46716 h -1.85186 v 26.244938 h 1.85186 c 7.36543,0 13.84259,-3.044445 17.04753,-4.85926 1.94876,-1.103086 8.30432,-4.974691 8.30432,-8.498148 0,-4.972222 -13.84198,-12.88753 -25.35185,-12.88753 z m -14.25433,79.819007 c -58.347895,0 -105.8172764,-30.02531 -105.8172764,-66.931477 0,-36.905431 47.4693814,-66.9314794 105.8172764,-66.9314794 33.3679,0 64.90864,10.0708644 84.88087,27.0184564 l -40.09568,39.875369 38.85432,40.982711 c -20.00185,16.30124 -51.08025,25.98642 -83.63951,25.98642 z M 109.52098,0 C 80.412961,0 53.020122,7.2586418 32.390061,20.438395 11.502963,33.782777 0,51.609999 0,70.635183 c 0,19.027778 11.502963,36.854937 32.390061,50.198147 20.629567,13.17901 48.022283,20.43704 77.130919,20.43704 34.75062,0 66.65988,-10.25124 87.54445,-28.12593 l 1.48024,-1.26728 -39.06358,-41.203705 40.33704,-40.115493 -1.46728,-1.307839 C 177.81975,10.934629 144.61234,0 109.52098,0 Z"
               id="path16"
               fill="#2c3c88" />
            <path
               d="m 68.075924,60.964258 c 6.059877,-10.804876 25.879629,-20.01858 41.445056,-20.034012 20.40556,-0.02339 29.0426,4.840617 41.08457,14.187654 l 21.51667,-21.654382 c -15.97778,-9.718333 -38.12531,-18.226975 -62.60124,-18.226975 -48.72092,0 -88.217462,26.339937 -88.217462,55.762838 0,29.420989 39.496542,55.253699 88.217462,55.253699 24.1963,0 46.12037,-7.86481 62.05803,-17.39074 L 150.79629,86.611726 c -17.72037,11.385185 -25.74074,14.017904 -41.27531,14.017904 -14.943822,0 -34.974068,-9.552472 -41.264809,-20.154941 H 109.52098 V 60.964258 H 68.075924"
               id="path18"
               fill="#2c3c88" />
          </g>
        </g>
      </g>
    </g>
  </g>
</svg>
